<svg width="17" height="16" viewBox="0 0 17 16" fill="none" xmlns="http://www.w3.org/2000/svg">
<path d="M13.7921 0.751681C14.1826 0.752674 14.5567 0.908216 14.8328 1.1843C15.1089 1.46038 15.2644 1.83453 15.2654 2.22497V11.1474C15.2644 11.5379 15.1089 11.912 14.8328 12.1881C14.5567 12.4642 14.1826 12.6197 13.7921 12.6207H10.4471C10.1099 12.6204 9.77777 12.7033 9.48015 12.8619C9.18254 13.0206 8.92861 13.2501 8.74084 13.5303L7.61332 15.1952C7.60206 15.214 7.58605 15.2294 7.56691 15.24C7.54777 15.2505 7.52619 15.2558 7.50433 15.2554C7.48234 15.2567 7.46042 15.2517 7.44113 15.2411C7.42184 15.2304 7.40594 15.2145 7.39532 15.1952L6.34297 13.6656C6.12218 13.3431 5.82601 13.0794 5.4802 12.8973C5.13438 12.7152 4.74937 12.6203 4.35855 12.6207H2.22751C1.83707 12.6197 1.46292 12.4642 1.18684 12.1881C0.910757 11.912 0.755215 11.5379 0.754223 11.1474V2.22497C0.755215 1.83453 0.910757 1.46038 1.18684 1.1843C1.46292 0.908216 1.83707 0.752674 2.22751 0.751681H13.7921ZM13.7921 0H2.22375C1.63365 0 1.06773 0.234413 0.650467 0.651677C0.233203 1.06894 -0.0012207 1.63487 -0.0012207 2.22497V11.1474C-0.0012207 11.7375 0.233203 12.3035 0.650467 12.7207C1.06773 13.138 1.63365 13.3724 2.22375 13.3724H4.35478C4.62345 13.3719 4.88815 13.4371 5.12592 13.5622C5.36368 13.6873 5.56731 13.8686 5.71909 14.0903L6.77144 15.6237C6.85282 15.7414 6.96188 15.8372 7.08903 15.9027C7.21619 15.9683 7.35753 16.0015 7.50057 15.9995C7.64722 16.0043 7.79273 15.9724 7.92396 15.9068C8.0552 15.8411 8.16804 15.7439 8.25225 15.6237L9.37977 13.955C9.4995 13.778 9.66076 13.633 9.84946 13.5328C10.0382 13.4326 10.2485 13.3801 10.4622 13.3799H13.7921C14.3822 13.3799 14.9482 13.1455 15.3654 12.7282C15.7827 12.311 16.0171 11.7451 16.0171 11.155V2.22497C16.0171 1.63487 15.7827 1.06894 15.3654 0.651677C14.9482 0.234413 14.3822 0 13.7921 0Z" fill="#003428"/>
<path d="M5.30951 8.46769H7.22631C7.38107 8.45718 7.53479 8.4996 7.66228 8.58796C7.71228 8.62441 7.7525 8.67264 7.77938 8.72837C7.80627 8.7841 7.81896 8.84559 7.81636 8.90741C7.81745 8.96359 7.80739 9.01943 7.78675 9.07168C7.7661 9.12394 7.7353 9.17159 7.69611 9.21185C7.64571 9.2578 7.58617 9.29259 7.52141 9.31396C7.45664 9.33533 7.38812 9.3428 7.32027 9.33588H4.61798C4.53989 9.34006 4.46175 9.32859 4.38817 9.30212C4.31459 9.27566 4.24705 9.23474 4.18951 9.18178C4.14058 9.13613 4.10161 9.08083 4.07509 9.01938C4.04857 8.95793 4.03506 8.89165 4.03541 8.82473C4.04533 8.70304 4.0785 8.58439 4.13313 8.4752C4.18665 8.35007 4.2603 8.23454 4.35112 8.13318C4.6781 7.79493 4.97125 7.50554 5.23434 7.26124C5.41005 7.09086 5.59714 6.93264 5.79434 6.78768C5.97492 6.662 6.14239 6.51845 6.29421 6.35921C6.41963 6.23074 6.52254 6.0821 6.59864 5.91949C6.66665 5.78146 6.70263 5.62986 6.70389 5.476C6.70576 5.32847 6.66812 5.18312 6.59488 5.05505C6.52139 4.93247 6.41451 4.83339 6.28671 4.76941C6.15918 4.69863 6.01536 4.66236 5.86951 4.66418C5.71791 4.66249 5.56857 4.70088 5.43657 4.77546C5.30458 4.85004 5.19462 4.95816 5.11783 5.08888C5.06884 5.18531 5.02859 5.28594 4.99756 5.38955C4.9529 5.52446 4.88694 5.65135 4.80214 5.76539C4.76329 5.81127 4.71399 5.84715 4.6584 5.87004C4.60281 5.89293 4.54255 5.90216 4.48266 5.89694C4.42637 5.89889 4.37029 5.88922 4.31791 5.86853C4.26553 5.84783 4.21798 5.81656 4.17823 5.77666C4.13704 5.73241 4.10518 5.68033 4.08452 5.62351C4.06386 5.56669 4.05481 5.5063 4.05796 5.44592C4.06033 5.2648 4.09868 5.08595 4.17073 4.91975C4.24964 4.73165 4.366 4.56158 4.51273 4.41988C4.67531 4.25668 4.86979 4.12874 5.08402 4.04404C5.34403 3.94953 5.61921 3.90366 5.89582 3.90874C6.22425 3.89837 6.55106 3.95861 6.85421 4.08538C7.02548 4.16235 7.17999 4.27216 7.30899 4.4086C7.43861 4.54574 7.54068 4.70651 7.60966 4.88216C7.6814 5.06016 7.71841 5.25025 7.71866 5.44216C7.72169 5.73455 7.64362 6.02206 7.49315 6.27278C7.36797 6.48825 7.21227 6.68447 7.03087 6.85533C6.87677 6.99439 6.61368 7.23117 6.24535 7.51681C5.97459 7.7285 5.72305 7.96368 5.49367 8.21963C5.42547 8.29703 5.36387 8.38001 5.30951 8.46769Z" fill="#003428"/>
<path d="M10.7327 8.86984V8.18581H8.90609C8.71706 8.20146 8.5291 8.14507 8.3799 8.02795C8.32226 7.97294 8.27703 7.90628 8.24722 7.83239C8.21741 7.75851 8.20371 7.6791 8.20703 7.5995C8.20643 7.55063 8.21537 7.50212 8.23334 7.45668C8.25382 7.4044 8.27896 7.35409 8.30849 7.30634L8.4175 7.15601L8.5528 6.9756L10.4996 4.37103C10.5921 4.23664 10.6965 4.11085 10.8116 3.99519C10.8508 3.9569 10.8973 3.92686 10.9483 3.90685C10.9993 3.88683 11.0537 3.87726 11.1085 3.87868C11.4843 3.87868 11.6685 4.0929 11.6685 4.5176V7.35895H11.8226C11.9781 7.35238 12.1332 7.3793 12.2774 7.43789C12.3375 7.46967 12.3863 7.51919 12.4172 7.57971C12.4482 7.64024 12.4597 7.70883 12.4503 7.77614C12.455 7.83546 12.4443 7.89499 12.4193 7.94898C12.3943 8.00297 12.3558 8.0496 12.3074 8.08434C12.182 8.15977 12.0361 8.19394 11.8903 8.18205H11.6685V8.86608C11.6788 9.01729 11.6333 9.16704 11.5407 9.28702C11.498 9.33234 11.446 9.36789 11.3883 9.39125C11.3305 9.4146 11.2684 9.42521 11.2062 9.42233C11.1443 9.42495 11.0825 9.41384 11.0253 9.3898C10.9681 9.36576 10.917 9.32937 10.8755 9.28326C10.7773 9.16845 10.7263 9.02075 10.7327 8.86984ZM9.15413 7.36648H10.7327V5.2317L9.15413 7.36648Z" fill="#003428"/>
</svg>
