<svg width="17" height="18" viewBox="0 0 17 18" fill="none" xmlns="http://www.w3.org/2000/svg">
<path d="M13.7921 1.75168C14.1826 1.75267 14.5567 1.90822 14.8328 2.1843C15.1089 2.46038 15.2644 2.83453 15.2654 3.22497V12.1474C15.2644 12.5379 15.1089 12.912 14.8328 13.1881C14.5567 13.4642 14.1826 13.6197 13.7921 13.6207H10.4471C10.1099 13.6204 9.77777 13.7033 9.48015 13.8619C9.18254 14.0206 8.92861 14.2501 8.74084 14.5303L7.61332 16.1952C7.60206 16.214 7.58605 16.2294 7.56691 16.24C7.54777 16.2505 7.52619 16.2558 7.50433 16.2554C7.48234 16.2567 7.46042 16.2517 7.44113 16.2411C7.42184 16.2304 7.40594 16.2145 7.39532 16.1952L6.34297 14.6656C6.12218 14.3431 5.82601 14.0794 5.4802 13.8973C5.13438 13.7152 4.74937 13.6203 4.35855 13.6207H2.22751C1.83707 13.6197 1.46292 13.4642 1.18684 13.1881C0.910757 12.912 0.755215 12.5379 0.754223 12.1474V3.22497C0.755215 2.83453 0.910757 2.46038 1.18684 2.1843C1.46292 1.90822 1.83707 1.75267 2.22751 1.75168H13.7921ZM13.7921 1H2.22375C1.63365 1 1.06773 1.23441 0.650467 1.65168C0.233203 2.06894 -0.0012207 2.63487 -0.0012207 3.22497V12.1474C-0.0012207 12.7375 0.233203 13.3035 0.650467 13.7207C1.06773 14.138 1.63365 14.3724 2.22375 14.3724H4.35478C4.62345 14.3719 4.88815 14.4371 5.12592 14.5622C5.36368 14.6873 5.56731 14.8686 5.71909 15.0903L6.77144 16.6237C6.85282 16.7414 6.96188 16.8372 7.08903 16.9027C7.21619 16.9683 7.35753 17.0015 7.50057 16.9995C7.64722 17.0043 7.79273 16.9724 7.92396 16.9068C8.0552 16.8411 8.16804 16.7439 8.25225 16.6237L9.37977 14.955C9.4995 14.778 9.66076 14.633 9.84946 14.5328C10.0382 14.4326 10.2485 14.3801 10.4622 14.3799H13.7921C14.3822 14.3799 14.9482 14.1455 15.3654 13.7282C15.7827 13.311 16.0171 12.7451 16.0171 12.155V3.22497C16.0171 2.63487 15.7827 2.06894 15.3654 1.65168C14.9482 1.23441 14.3822 1 13.7921 1Z" fill="#003428"/>
<path d="M8.06 4.528C8.852 4.528 9.492 4.752 9.98 5.2C10.468 5.648 10.712 6.248 10.712 7C10.712 7.84 10.452 8.464 9.932 8.872C9.412 9.272 8.708 9.472 7.82 9.472L7.784 10.612H6.836L6.788 8.716H7.136C7.928 8.716 8.548 8.596 8.996 8.356C9.444 8.116 9.668 7.664 9.668 7C9.668 6.52 9.524 6.14 9.236 5.86C8.948 5.58 8.56 5.44 8.072 5.44C7.576 5.44 7.184 5.576 6.896 5.848C6.616 6.112 6.476 6.476 6.476 6.94H5.444C5.444 6.46 5.552 6.04 5.768 5.68C5.984 5.312 6.288 5.028 6.68 4.828C7.08 4.628 7.54 4.528 8.06 4.528ZM7.304 13.072C7.096 13.072 6.92 13 6.776 12.856C6.632 12.712 6.56 12.536 6.56 12.328C6.56 12.12 6.632 11.944 6.776 11.8C6.92 11.656 7.096 11.584 7.304 11.584C7.504 11.584 7.672 11.656 7.808 11.8C7.952 11.944 8.024 12.12 8.024 12.328C8.024 12.536 7.952 12.712 7.808 12.856C7.672 13 7.504 13.072 7.304 13.072Z" fill="black"/>
</svg>
